# AST/ASF file generated using VICON BodyLanguage
# -----------------------------------------------
:version 1.10
:name VICON
:units
  mass 1.0
  length 0.45
  angle deg
:documentation
   .ast/.asf automatically generated from VICON data using
   VICON BodyBuilder and BodyLanguage model FoxedUp or BRILLIANT.MOD
:root
   order TX TY TZ RX RY RZ
   axis XYZ
   position 0 0 0  
   orientation 0 0 0 
:bonedata
  begin
     id 1 
     name lhipjoint
     direction 0.624716 -0.669793 0.401383 
     length 2.38238 
     axis 0 0 0  XYZ
  end
  begin
     id 2 
     name lfemur
     direction 0.34202 -0.939693 0  
     length 6.4574  
     axis 0 0 20  XYZ
    dof rx ry rz
    limits (-160.0 20.0)
           (-70.0 70.0)
           (-60.0 70.0)
  end
  begin
     id 3 
     name ltibia
     direction 0.34202 -0.939693 0   
     length 7.68739   
     axis 0 0 20   XYZ
    dof rx
    limits (-10.0 170.0)
  end
  begin
     id 4 
     name lfoot
     direction 0.0681309 -0.187188 0.979959   
     length 2.46615   
     axis -90 7.62852e-016 20   XYZ
    dof rx rz
    limits (-45.0 90.0)
           (-70.0 20.0)
  end
  begin
     id 5 
     name ltoes
     direction 1.53566e-011 -4.21819e-011 1   
     length 1.2376   
     axis -90 7.62852e-016 20   XYZ
    dof rx
    limits (-90.0 20.0)
  end
  begin
     id 6 
     name rhipjoint
     direction -0.644473 -0.655875 0.393043   
     length 2.43293  
     axis 0 0 0  XYZ 
  end
  begin
     id 7 
     name rfemur
     direction -0.34202 -0.939693 0   
     length 6.7025   
     axis 0 0 -20   XYZ
    dof rx ry rz
    limits (-160.0 20.0)
           (-70.0 70.0)
           (-70.0 60.0)
  end
  begin
     id 8 
     name rtibia
     direction -0.34202 -0.939693 0   
     length 7.80547   
     axis 0 0 -20   XYZ
    dof rx
    limits (-10.0 170.0)
 end
 begin
     id 9 
     name rfoot
     direction -0.0756734 -0.207911 0.975216   
     length 2.40315  
     axis -90 -7.62852e-016 -20   XYZ
    dof rx rz
    limits (-45.0 90.0)
           (-20.0 70.0)
  end
  begin
     id 10 
     name rtoes
     direction -1.5353e-011 -4.21879e-011 1   
     length 1.20477   
     axis -90 -7.62852e-016 -20   XYZ
    dof rx
    limits (-90.0 20.0)
  end
  begin
     id 11 
     name lowerback
     direction 0.0160353 0.987463 -0.157037   
     length 2.18572   
     axis 0 0 0   XYZ
    dof rx ry rz
    limits (-20.0 45.0)
           (-30.0 30.0)
           (-30.0 30.0)
  end
  begin
     id 12 
     name upperback
     direction -0.00499661 0.999756 0.0215076   
     length 2.18016   
     axis 0 0 0   XYZ
    dof rx ry rz
    limits (-20.0 45.0)
           (-30.0 30.0)
           (-30.0 30.0)
  end
  begin
     id 13 
     name thorax
     direction -0.00921346 0.995333 0.0960619   
     length 2.24923   
     axis 0 0 0   XYZ
    dof rx ry rz
    limits (-20.0 45.0)
           (-30.0 30.0)
           (-30.0 30.0)
  end
  begin
     id 14 
     name lowerneck
     direction 0.0274184 0.991181 0.12965   
     length 1.70911   
     axis 0 0 0   XYZ
    dof rx ry rz
    limits (-20.0 45.0)
           (-30.0 30.0)
           (-30.0 30.0)
  end
  begin
     id 15 
     name upperneck
     direction 0.0015627 0.999959 -0.00893559   
     length 1.69312   
     axis 0 0 0   XYZ
    dof rx ry rz
    limits (-20.0 45.0)
           (-30.0 30.0)
           (-30.0 30.0)
  end
  begin
     id 16
     name head
     direction -0.00230242 0.999856 -0.0168327  
     length 1.80241  
     axis 0 0 0   XYZ
    dof rx ry rz
    limits (-20.0 45.0)
           (-30.0 30.0)
           (-30.0 30.0)
  end
  begin
     id 17 
     name lclavicle
     direction 0.955523 0.290741 -0.0494489  
     length 3.84275  
     axis 0 0 0   XYZ
    dof ry rz
    limits (-20.0 10.0)
           (0.0 20.0)
  end
  begin
     id 18 
     name lhumerus
     direction 1 -4.48967e-011 -3.18382e-028   
     length 5.17714   
     axis 180 -30 -90   XYZ
    dof rx ry rz
    limits (-60.0 90.0)
           (-90.0 90.0)
           (-90.0 90.0)
  end
  begin
     id 19
     name lradius
     direction 1 -4.48968e-011 -2.22911e-027   
     length 3.43679   
     axis 180 -30 -90   XYZ
    dof rx
    limits (-10.0 170.0)
  end
  begin
     id 20
     name lwrist
     direction 1 -4.48951e-011 -6.32245e-027   
     length 1.7184   
     axis 3.57107e-015 90 90   XYZ
    dof ry
    limits (-180.0 0.0)
 end
  begin
     id 21 
     name lhand
     direction 1 -4.48924e-011 -1.26431e-026   
     length 0.573117   
     axis 8.06912e-015 90 90   XYZ
    dof rx rz
    limits (-90.0 90.0)
           (-45.0 45.0)
  end
  begin
     id 22 
     name lfingers
     direction 1 -4.49001e-011 -2.52965e-026   
     length 0.462062   
     axis 1.61381e-014 90 90   XYZ
    dof rx
    limits (0.0 90.0)
  end
  begin
     id 23
     name lthumb
     direction 0.707107 -6.35008e-011 0.707107   
     length 0.663431   
     axis -90 45 -1.62303e-014   XYZ
    dof rx rz
    limits (-45.0 45.0)
           (-45.0 45.0)
  end
  begin
     id 24 
     name rclavicle
     direction -0.963917 0.256881 -0.0698287   
     length 3.73057  
     axis 0 0 0   XYZ 
    dof ry rz
    limits (-10.0 20.0)
           (-20.0 0.0)
  end
  begin
     id 25 
     name rhumerus
     direction -1 -4.48962e-011 -2.73982e-027  
     length 5.23908   
     axis 180 30 90   XYZ
    dof rx ry rz
    limits (-90.0 60.0)
           (-90.0 90.0)
           (-90.0 90.0)
  end
  begin
     id 26 
     name rradius
     direction -1 -4.48968e-011 -4.33218e-027   
     length 3.46485   
     axis 180 30 90   XYZ
    dof rx
    limits (-10.0 170.0)
  end
  begin
     id 27 
     name rwrist
     direction -1 -4.48989e-011 -6.32372e-027   
     length 1.73243   
     axis 3.57107e-015 -90 -90   XYZ
    dof ry
    limits (-180.0 0.0)
  end
  begin
     id 28
     name rhand
     direction -1 -4.48948e-011 -1.26448e-026   
     length 0.608752   
     axis 8.06912e-015 -90 -90   XYZ
    dof rx rz
    limits (-90.0 90.0)
           (-45.0 45.0)
  end
  begin
     id 29
     name rfingers
     direction -1 -4.48962e-011 -2.52913e-026   
     length 0.490792   
     axis 1.61381e-014 -90 -90   XYZ
    dof rx
    limits (0.0 90.0)
  end
  begin
     id 30
     name rthumb
     direction -0.707107 -6.34878e-011 0.707107   
     length 0.704682   
     axis -90 -45 1.62303e-014   XYZ
    dof rx rz
    limits (-45.0 45.0)
           (-45.0 45.0)
  end
:hierarchy
  begin
    root lhipjoint rhipjoint lowerback
    lhipjoint lfemur
    lfemur ltibia
    ltibia lfoot
    lfoot ltoes
    rhipjoint rfemur
    rfemur rtibia
    rtibia rfoot
    rfoot rtoes
    lowerback upperback
    upperback thorax
    thorax lowerneck lclavicle rclavicle
    lowerneck upperneck
    upperneck head
    lclavicle lhumerus
    lhumerus lradius
    lradius lwrist
    lwrist lhand lthumb
    lhand lfingers
    rclavicle rhumerus
    rhumerus rradius
    rradius rwrist
    rwrist rhand rthumb
    rhand rfingers
  end

#!OML:ASF G:\JayActor3\Patient Classification 1\Patient 1\Session 6\male.ASF
:FULLY-SPECIFIED
:DEGREES
224
root 49.3319 15.4617 18.0662 -172.989 -27.7686 -189.962
lowerback 1.37019 -1.12576 -7.25475
upperback 0.00690932 -1.86578 -3.90358
thorax -0.674297 -1.00638 0.0747465
lowerneck 7.1189 6.65871 5.38445
upperneck -14.7745 9.6369 2.09726
head -5.49024 4.04785 -0.835448
rclavicle -2.8948e-014 4.69132e-014
rhumerus -36.6033 -2.26016 -88.3003
rradius 31.832
rwrist -2.57726
rhand -20.086 -8.22983
rfingers 7.12502
rthumb 6.25676 -38.1174
lclavicle -2.8948e-014 4.69132e-014
lhumerus -21.1672 -20.9366 100.512
lradius 24.0617
lwrist 28.8634
lhand -16.3045 13.4593
lfingers 7.12502
lthumb 9.90643 43.2062
rfemur -43.7514 0.979651 14.2639
rtibia 69.5948
rfoot -21.5768 -10.1799
rtoes -11.8206
lfemur 6.98826 18.0099 -30.7427
ltibia 12.9934
lfoot -23.9981 0.662054
ltoes 6.17475
225
root 49.2976 15.4608 18.0044 -172.836 -27.5722 -189.881
lowerback 1.25524 -1.15474 -7.24302
upperback -0.127584 -1.89849 -3.86115
thorax -0.745778 -1.01704 0.111535
lowerneck 7.23159 6.73123 5.36423
upperneck -14.8609 9.74644 2.11231
head -5.53655 4.09488 -0.840734
rclavicle 7.52648e-014 -8.62725e-014
rhumerus -36.7715 -2.23652 -88.2256
rradius 31.8301
rwrist -2.54663
rhand -20.0638 -8.24984
rfingers 7.12502
rthumb 6.27821 -38.1368
lclavicle 7.52648e-014 -8.62725e-014
lhumerus -21.2478 -22.1837 100.972
lradius 25.2226
lwrist 30.1556
lhand -15.8581 13.756
lfingers 7.12502
lthumb 10.337 43.482
rfemur -44.4033 0.919447 14.4028
rtibia 68.7558
rfoot -21.5006 -10.2247
rtoes -11.8414
lfemur 7.48685 18.0577 -30.6921
ltibia 12.1647
lfoot -23.8177 0.798349
ltoes 6.04096
226
root 49.2615 15.4595 17.9396 -172.695 -27.348 -189.787
lowerback 1.12154 -1.17586 -7.21544
upperback -0.252186 -1.91775 -3.81717
thorax -0.797595 -1.02177 0.140254
lowerneck 7.35316 6.79598 5.34955
upperneck -14.9712 9.84406 2.10198
head -5.59045 4.13646 -0.854912
rclavicle -3.52346e-014 7.43455e-014
rhumerus -36.9202 -2.21797 -88.1415
rradius 31.8012
rwrist -2.49313
rhand -20.0257 -8.24739
rfingers 7.12502
rthumb 6.31496 -38.1333
lclavicle -3.52346e-014 7.43455e-014
lhumerus -21.2897 -23.3691 101.376
lradius 26.3401
lwrist 31.3966
lhand -15.4131 14.072
lfingers 7.12502
lthumb 10.7663 43.7761
rfemur -45.0186 0.879327 14.5417
rtibia 67.8556
rfoot -21.4299 -10.2516
rtoes -11.7934
lfemur 8.04613 18.077 -30.6422
ltibia 11.254
lfoot -23.6216 0.97929
ltoes 6.04189
227
root 49.2242 15.4578 17.8721 -172.574 -27.1106 -189.684
lowerback 0.983098 -1.19104 -7.17749
upperback -0.362404 -1.92732 -3.77036
thorax -0.832573 -1.02239 0.16563
lowerneck 7.47327 6.85221 5.34293
upperneck -15.093 9.92756 2.0643
head -5.64601 4.1724 -0.878151
rclavicle 3.45388e-014 -3.77691e-014
rhumerus -37.0473 -2.21645 -88.0414
rradius 31.7456
rwrist -2.40964
rhand -19.9764 -8.22003
rfingers 7.12502
rthumb 6.36265 -38.1045
lclavicle 3.45388e-014 -3.77691e-014
lhumerus -21.2772 -24.4524 101.717
lradius 27.401
lwrist 32.5474
lhand -14.9657 14.392
lfingers 7.12502
lthumb 11.1978 44.0732
rfemur -45.5867 0.852464 14.6793
rtibia 66.9036
rfoot -21.3542 -10.2826
rtoes -11.7084
lfemur 8.68905 18.0488 -30.5934
ltibia 10.2349
lfoot -23.3962 1.21685
ltoes 6.13492
228
root 49.1847 15.4551 17.8017 -172.493 -26.832 -189.56
lowerback 0.836696 -1.18605 -7.10585
upperback -0.449692 -1.90725 -3.72859
thorax -0.842133 -1.00957 0.166287
lowerneck 7.57351 6.90813 5.33661
upperneck -15.2131 10.0089 2.03069
head -5.69794 4.20696 -0.899327
rclavicle -1.31446e-014 2.38542e-014
rhumerus -37.1534 -2.24004 -87.9344
rradius 31.6743
rwrist -2.31125
rhand -19.9228 -8.17381
rfingers 7.12502
rthumb 6.4143 -38.0567
lclavicle -1.31446e-014 2.38542e-014
lhumerus -21.2216 -25.4968 101.998
lradius 28.4274
lwrist 33.6425
lhand -14.524 14.739
lfingers 7.12502
lthumb 11.6238 44.3966
rfemur -46.0971 0.858385 14.8258
rtibia 65.9107
rfoot -21.2534 -10.3333
rtoes -11.6473
lfemur 9.46257 18.0793 -30.5264
ltibia 9.06673
lfoot -23.1178 1.4649
ltoes 6.25745
229
root 49.1439 15.4519 17.7288 -172.435 -26.536 -189.427
lowerback 0.684888 -1.17738 -7.01729
upperback -0.51754 -1.88017 -3.6872
thorax -0.829377 -0.994255 0.156719
lowerneck 7.66263 6.96616 5.32917
upperneck -15.3428 10.0906 1.989
head -5.75059 4.24181 -0.922696
rclavicle 2.02139e-014 6.36111e-015
rhumerus -37.2407 -2.24449 -87.8357
rradius 31.6007
rwrist -2.21933
rhand -19.8794 -8.12296
rfingers 7.12502
rthumb 6.45628 -38.0046
lclavicle 2.02139e-014 6.36111e-015
lhumerus -21.117 -26.5098 102.215
lradius 29.4213
lwrist 34.7031
lhand -14.1212 15.0942
lfingers 7.12502
lthumb 12.0122 44.7295
rfemur -46.5608 0.878307 14.9709
rtibia 64.8862
rfoot -21.126 -10.3971
rtoes -11.5818
lfemur 10.392 18.1295 -30.4505
ltibia 7.67846
lfoot -22.7457 1.74678
ltoes 6.41201
230
root 49.1033 15.4483 17.6539 -172.402 -26.2521 -189.299
lowerback 0.553277 -1.16961 -6.93778
upperback -0.565994 -1.85531 -3.64478
thorax -0.807459 -0.980565 0.153507
lowerneck 7.73871 7.02641 5.31549
upperneck -15.4786 10.173 1.947
head -5.80321 4.27696 -0.944956
rclavicle 5.00565e-014 -5.56597e-015
rhumerus -37.3118 -2.23777 -87.7409
rradius 31.5344
rwrist -2.1434
rhand -19.8547 -8.09308
rfingers 7.12502
rthumb 6.48007 -37.9739
lclavicle 5.00565e-014 -5.56597e-015
lhumerus -20.9542 -27.4396 102.367
lradius 30.3703
lwrist 35.6519
lhand -13.7152 15.4435
lfingers 7.12502
lthumb 12.4037 45.0555
rfemur -46.971 0.894685 15.1059
rtibia 63.84
rfoot -20.9812 -10.4946
rtoes -11.5117
lfemur 11.5745 18.1705 -30.3636
ltibia 5.89754
lfoot -22.1833 2.09943
ltoes 6.55601
231
root 49.0633 15.4443 17.5778 -172.391 -25.9975 -189.187
lowerback 0.461458 -1.17059 -6.87326
upperback -0.596731 -1.84539 -3.60369
thorax -0.788408 -0.974528 0.158129
lowerneck 7.78915 7.09599 5.28519
upperneck -15.6151 10.2651 1.92099
head -5.85326 4.31626 -0.959448
rclavicle 2.9855e-014 2.54444e-014
rhumerus -37.363 -2.22697 -87.6503
rradius 31.472
rwrist -2.07036
rhand -19.8437 -8.08925
rfingers 7.12502
rthumb 6.49073 -37.9698
lclavicle 2.9855e-014 2.54444e-014
lhumerus -20.7316 -28.2655 102.451
lradius 31.2744
lwrist 36.4697
lhand -13.3262 15.7825
lfingers 7.12502
lthumb 12.7788 45.3714
rfemur -47.3252 0.891577 15.2187
rtibia 62.7802
rfoot -20.8249 -10.6108
rtoes -11.393
lfemur 13.3407 18.182 -30.2682
ltibia 3.13228
lfoot -21.1695 2.60398
ltoes 6.58288
232
root 49.0238 15.4401 17.5004 -172.391 -25.7671 -189.094
lowerback 0.398989 -1.17373 -6.81804
upperback -0.614456 -1.8414 -3.57265
thorax -0.772204 -0.971876 0.158157
lowerneck 7.84114 7.15879 5.25617
upperneck -15.7759 10.348 1.89402
head -5.91132 4.34943 -0.974545
rclavicle 8.68441e-015 1.55052e-014
rhumerus -37.4044 -2.22412 -87.5699
rradius 31.4266
rwrist -2.01468
rhand -19.8469 -8.11964
rfingers 7.12502
rthumb 6.48758 -38.0003
lclavicle 8.68441e-015 1.55052e-014
lhumerus -20.4696 -29.0439 102.474
lradius 32.1507
lwrist 37.176
lhand -12.9418 16.1109
lfingers 7.12502
lthumb 13.1493 45.6762
rfemur -47.639 0.871011 15.3079
rtibia 61.7145
rfoot -20.6536 -10.7562
rtoes -11.2361
lfemur 15.3416 18.1646 -30.1641
ltibia -5.08889e-014
lfoot -19.9776 3.18735
ltoes 6.50743
